<svg width="19" height="28" viewBox="0 0 19 28" fill="none" xmlns="http://www.w3.org/2000/svg">
<path d="M17.9431 3.0462C17.7028 2.67742 17.3517 2.66683 16.9517 2.65476C16.9064 2.65339 16.8605 2.65201 16.814 2.65008C16.7786 2.64845 16.7395 2.64908 16.6987 2.64973C16.5365 2.65234 16.3467 2.6554 16.2511 2.51879C16.1403 2.36041 16.1508 2.05434 16.1595 1.80167C16.1622 1.72182 16.1648 1.64726 16.1632 1.58443C16.1477 0.997471 16.1152 0.373965 15.8891 0.165528C15.7186 0.00914052 15.2086 0.0308058 14.7382 0.0507864C14.5857 0.0572636 14.4374 0.0635638 14.3062 0.0635638H4.29431C4.09272 0.0635638 3.88142 0.0471134 3.6738 0.0309501C3.26925 -0.000544882 2.87869 -0.0309501 2.60135 0.0635638C2.19884 0.2014 2.17159 0.925704 2.14593 1.60774L2.14454 1.64444C2.123 2.20749 1.98377 2.64196 1.52232 2.5982C0.985626 2.54812 0.451584 2.53233 0.208928 3.01913C-0.0776551 3.5951 -0.0185506 4.19802 0.0873147 5.27793C0.102437 5.43219 0.118513 5.59619 0.134673 5.77122H18.0979C18.1081 5.64328 18.1191 5.51698 18.1298 5.39273C18.2139 4.42114 18.2872 3.57461 17.9431 3.0462Z" fill="#8047F8"/>
<path fill-rule="evenodd" clip-rule="evenodd" d="M1.53359 6.84228C1.81414 10.6477 2.09163 14.4574 2.36912 18.2672L2.36929 18.2695C2.51996 20.3381 2.67063 22.4067 2.82179 24.4746H3.39495C3.43401 24.7983 3.4787 25.1979 3.52582 25.6193C3.62146 26.4745 3.72712 27.4194 3.81595 28H3.87935C4.46316 27.7859 8.49914 26.057 8.50095 19.1738C8.5002 19.1541 8.50086 19.1345 8.50289 19.115H7.50577C7.4575 19.1146 7.41071 19.0984 7.37261 19.0691C7.3345 19.0397 7.30719 18.9988 7.29486 18.9525C7.1977 18.712 7.11935 18.4644 7.06052 18.2119C6.47393 18.5439 6.00811 19.0509 5.72945 19.6606C5.46493 19.0362 5.43031 18.3395 5.63163 17.6923C5.83296 17.0452 6.25743 16.4886 6.83087 16.1201C6.83825 14.1115 7.58863 12.1753 8.93996 10.678L8.96105 10.6594C9.00032 10.6254 9.05061 10.6065 9.10276 10.6061C9.13292 10.6063 9.1627 10.6128 9.19022 10.625C9.21808 10.6374 9.24299 10.6555 9.26335 10.678C10.6305 12.1774 11.3769 14.1322 11.3537 16.1526C11.9378 16.5109 12.3709 17.067 12.5726 17.7177C12.7743 18.3684 12.7309 19.0694 12.4504 19.6908C12.1733 19.0801 11.7071 18.5727 11.1193 18.2421C11.0834 18.4868 11.0173 18.7261 10.9225 18.9548C10.8897 19.0523 10.8241 19.115 10.7585 19.115H9.69509C9.69677 19.1267 9.69796 19.1384 9.69864 19.1502L9.69905 19.1529V19.1586C9.69943 19.1687 9.69944 19.1789 9.69908 19.189C9.71364 26.2699 14.0048 27.8771 14.3665 28H14.4902C14.5218 27.4423 14.6246 26.6727 14.7248 25.9225C14.7939 25.4054 14.8618 24.8976 14.9042 24.4746H15.484C15.6696 21.8698 15.8605 19.2724 16.0513 16.6748L16.0514 16.6734L16.0515 16.6726C16.2956 13.3501 16.5398 10.0275 16.7729 6.68934H1.57072C1.52696 6.69791 1.52995 6.76964 1.53359 6.84228ZM9.10276 10.6061L9.10165 10.606H9.104L9.10276 10.6061Z" fill="#8047F8"/>
</svg>
